<svg xmlns="http://www.w3.org/2000/svg" width="595" height="595" viewBox="0 0 595 595"><defs><style>.a{fill:#ffe1d9;}</style></defs><path class="a" d="M297.5,595a299.7,299.7,0,0,1-59.957-6.044,295.874,295.874,0,0,1-106.379-44.764A298.368,298.368,0,0,1,23.379,413.3,295.991,295.991,0,0,1,6.044,357.457a300.4,300.4,0,0,1,0-119.913A295.873,295.873,0,0,1,50.808,131.165,298.368,298.368,0,0,1,181.7,23.379,295.994,295.994,0,0,1,237.544,6.044a300.4,300.4,0,0,1,119.913,0A295.872,295.872,0,0,1,463.835,50.808,298.369,298.369,0,0,1,571.621,181.7a296,296,0,0,1,17.335,55.844,300.4,300.4,0,0,1,0,119.913,295.873,295.873,0,0,1-44.764,106.378A298.369,298.369,0,0,1,413.3,571.621a296,296,0,0,1-55.844,17.335A299.7,299.7,0,0,1,297.5,595ZM297,46C158.6,46,46,158.6,46,297S158.6,548,297,548,548,435.4,548,297,435.4,46,297,46Z" transform="translate(0 0)"/></svg>